<svg xmlns="http://www.w3.org/2000/svg" viewBox="0 0 1159.53 394.13"><defs><style>.cls-1{font-size:59.26px;fill:#232323;font-family:Roboto-Bold, Roboto;font-weight:700;letter-spacing:0.06em;}.cls-2{letter-spacing:0.05em;}.cls-3{letter-spacing:0.06em;}.cls-4{letter-spacing:0.08em;}.cls-5{font-size:118.83px;font-family:Righteous-Regular, Righteous;}.cls-6{letter-spacing:-0.01em;}.cls-7{letter-spacing:0em;}</style></defs><title>unsal portfolio logoUnsalOztorun Productions</title><g id="Layer_2" data-name="Layer 2"><g id="Layer_1-2" data-name="Layer 1"><path d="M141.77,215.52a5.75,5.75,0,0,1,1.57-10.76c8.95-1.67,20.85-4.65,31.38-9.78,10.94-5.33,19.39-15.3,24.83-23.28A5.74,5.74,0,0,1,210,174.2c1.4,10.58.63,24.45-10.16,32.52C174.41,225.75,153.94,221.66,141.77,215.52Z"/><path d="M105.3,332a.59.59,0,0,1-.33-.58c.24-2.6,1.67-17.09,4.31-18.4,2.14-1.07,9.86-3.74,13.7-5a13.8,13.8,0,0,1,4.5-.75h31.19a3.77,3.77,0,0,1,1.55,7.17c-5.71,2.74-12.51,6.46-16.23,10.19-4.63,4.62-14.57,8.65-21.14,11a15.38,15.38,0,0,1-12-.76Z"/><path d="M144.76,248.74a14.61,14.61,0,0,1,11.61-21.64c20.54-1.66,49.26-7.07,59.93-24,9.18-14.53,5.41-27.45-.17-36.39a14.67,14.67,0,0,1,6-21.08h0a14.62,14.62,0,0,1,19.37,6.66l24.29,48.59a62.85,62.85,0,0,1,4.51,44.59c-6,22.25-21.85,53.91-44.64,70.57C198.45,336,162.53,280.74,144.76,248.74Z"/><path d="M245.23,146.72l23.35,49.75a80.08,80.08,0,0,1,6.5,47.23,163.59,163.59,0,0,1-5.26,23.07c-5.79,17.35-37.61,59.3-57.86,68s-88.22,40.5-88.22,40.5-2.89,40.5,65.08,2.89S294.4,304.37,293,276.89s-8.68-65.08-10.13-70.87S245.23,146.72,245.23,146.72Z"/><path d="M107.87,178a4.4,4.4,0,0,0,4.47-1.2c5.66-5.92,24.76-25.67,34.54-33s38.37-2.23,46.8-.51a4.35,4.35,0,0,0,4.92-2.44c.85-2,.17-4.82-6.89-7.17-8.25-2.75-22.32-4.34-31.51-5.14a25.84,25.84,0,0,0-16.22,4l-37.32,24.08a4.73,4.73,0,0,0-.57.43c-1.49,1.35-8.06,7.78-5.49,14.21A11.13,11.13,0,0,0,107.87,178Z"/><path d="M65,247.15a1.74,1.74,0,0,1,1.18-2.35c2.25-.53,6.43-2.14,11.25-7l5.33-5.33A1.74,1.74,0,0,1,85.74,234c-.77,5.47-3,14-9.73,16.89C68.93,253.89,66.09,249.85,65,247.15Z"/><path d="M72.29,196.35a3.81,3.81,0,0,0,1.3-6.33c-2.58-2.51-6.07-5-9.15-4.25-5.78,1.45-18.8,7.24-23.14,14.47A16.63,16.63,0,0,0,39,207.61,3.81,3.81,0,0,0,45,211c4.92-3.52,11.86-8.41,13.68-9.32S67.37,198.17,72.29,196.35Z"/><path d="M48.54,177.4a4.49,4.49,0,0,1-7-3c-1.82-12.52-4.1-38.67,5.55-53.68,8.3-12.9,26.58-24,38.75-30.43C92.91,86.54,96.22,86,108.61,84a3.93,3.93,0,0,1,.48-.06l40-2.1A73.77,73.77,0,0,1,210,108.26c3.46,4.2,5.9,8.09,6.26,11,.95,7.6-39.21,7.72-66.93,6.9a79,79,0,0,0-47.5,14.12Z"/><path d="M136.27,198.89a1.85,1.85,0,0,1-1.71-2.48c1.51-4.29,5.85-13.18,16.66-16.42,9.89-3,20.46-3.23,26.16-3.1a1.85,1.85,0,0,1,1.26,3.15l-7.1,7.11-.15.13C170.22,188.21,155.87,199.26,136.27,198.89Z"/><path d="M61.33,232.16a4.6,4.6,0,0,1,1-2.58c2.58-3.27,11.24-13.2,20.92-12,11.57,1.45-4.34,11.57-4.34,11.57s-10.12,7.23-14.46,7.23C61.58,236.39,61.23,233.87,61.33,232.16Z"/><path d="M62,92.6a59.68,59.68,0,0,1-17.68,10.93C30.5,108.9,10.41,111.36,2.25,86-10.7,45.68,36.49,28.3,37,28.13h0c.57-.25,66.62-28.92,86.78-26S253.78-21,305.88,54a1,1,0,0,1,.14.28c.93,3,15.41,49.43,18.89,74.77a8.16,8.16,0,0,1-11.17,8.64c-12.77-5-33.31-6.36-43.24,29.56a1,1,0,0,1-1.93.22c-6.24-11.78-34.73-63.74-55.16-71.4-23.14-8.67-37.6-30.37-89.67-24.58C85.77,75.73,68.57,86.87,62,92.6Z"/><path d="M321.88,158.29h0s-14.46-18.8-26-17.35-15.91,21.69-15.91,21.69h0l10.12,68h0c10.13,10.12,23.14-1.45,23.14-1.45h0A106.3,106.3,0,0,0,327.67,206C333.45,193,321.88,158.29,321.88,158.29Zm-26.05,28.54a3.62,3.62,0,0,1-4.78,3.09,3.66,3.66,0,0,1-2.42-3.76,3.62,3.62,0,0,1,7.2.67Z"/><path d="M112.87,220.56c-1.38-8,1.45-15.61-12-17.21a4.16,4.16,0,0,0-4.63,4.12h0a20.09,20.09,0,0,1-1.45,8.68c-2.89,7.23-1.44,26-4.34,33.26s-11.57,23.14,4.34,34.71c11.66,8.48,12.44,5.31,12,3-1.33,1.77-3.76,3.77-5.72-1.43a8.38,8.38,0,0,1-.52-3h0l5.93,2.37a1.47,1.47,0,0,0,1.09,0c3.9-1.61,16.13-6.22,23.35-3.81a7.24,7.24,0,0,0,5.92-.59c6.11-3.29,6.74-12,1.6-16.62C130,256.35,116.4,241.17,112.87,220.56Zm.54,53.11s11.28-5.23,19,.63A35.22,35.22,0,0,1,113.41,273.67Z"/><text class="cls-1" transform="translate(380.71 245.62) scale(0.78 1)">2019-2020 <tspan class="cls-2" x="345.3" y="0">P</tspan><tspan class="cls-3" x="386.7" y="0">o</tspan><tspan class="cls-4" x="423.77" y="0">r</tspan><tspan class="cls-3" x="450.39" y="0">tfolio</tspan></text><text class="cls-5" transform="translate(365.2 182.28)"><tspan class="cls-6">U</tspan><tspan x="78.91" y="0">nsal Ozto</tspan><tspan class="cls-7" x="612.02" y="0">r</tspan><tspan x="660.76" y="0">un</tspan></text></g></g></svg>